<svg version="1.1" id="Layer_1" xmlns="http://www.w3.org/2000/svg" xmlns:xlink="http://www.w3.org/1999/xlink" x="0px" y="0px"
	 width="100%" viewBox="0 0 160 160" enable-background="new 0 0 160 160" xml:space="preserve">
<path fill="#F3F302" opacity="1.000000" stroke="none" 
	d="
M161.000000,53.000000 
	C161.000000,60.687576 161.000000,68.375153 160.601379,76.544174 
	C153.667786,78.616562 147.132812,80.207512 140.349548,81.858910 
	C141.063919,84.566322 141.633453,86.724838 142.220505,88.949707 
	C148.779541,87.570213 154.889771,86.285103 161.000000,85.000000 
	C161.000000,110.253914 161.000000,135.507828 161.000000,161.000000 
	C139.979706,161.000000 118.958511,161.000000 97.585342,160.675751 
	C107.108849,154.623917 115.561165,147.262512 122.794518,138.428970 
	C131.567947,127.714653 134.541367,116.224731 129.135361,102.839600 
	C125.017464,92.643761 122.977623,81.540543 114.659409,73.066399 
	C118.270164,71.529945 121.524696,70.611954 124.229408,68.849968 
	C126.490814,67.376755 129.567017,64.946495 129.609818,62.884575 
	C129.654312,60.741360 126.903130,57.836903 124.643967,56.497120 
	C120.099373,53.801983 115.049423,51.963284 110.225113,49.734177 
	C106.113922,47.834579 102.026703,45.883099 96.655876,43.355469 
	C101.401093,41.561924 104.989532,40.673923 108.034485,38.869041 
	C109.708214,37.876945 111.313263,35.348225 111.328911,33.498615 
	C111.338707,32.340912 108.439476,30.947603 106.648537,30.055492 
	C105.325661,29.396534 103.684753,29.376011 101.628204,28.957670 
	C104.238914,25.550318 106.358566,22.809067 108.449944,20.046408 
	C110.157722,17.790482 112.689217,15.024068 109.841721,12.729468 
	C108.187012,11.396071 104.516495,11.457544 102.216240,12.244799 
	C95.962189,14.385221 89.820000,16.975271 83.898247,19.919649 
	C80.104126,21.806147 77.083473,21.605066 73.263466,19.858480 
	C70.090393,18.407682 66.077919,17.719175 62.620605,18.153208 
	C49.098209,19.850811 35.622654,22.334068 24.251554,30.516850 
	C16.224312,36.293354 8.731441,42.812439 1.000000,49.000000 
	C1.000000,33.027821 1.000000,17.055639 1.000000,1.041729 
	C54.212757,1.041729 107.425552,1.041729 161.000000,1.041729 
	C161.000000,15.352203 161.000000,29.707443 160.637573,44.561684 
	C150.602295,49.892040 140.929459,54.723400 130.988586,59.688637 
	C132.305801,62.167637 133.354919,64.142082 134.545273,66.382332 
	C143.643494,61.779926 152.321747,57.389965 161.000000,53.000000 
M133.576859,26.072435 
	C128.202621,30.101023 122.828377,34.129608 117.312531,38.264347 
	C119.159714,40.742256 120.615005,42.694466 122.198608,44.818798 
	C134.161102,36.010704 145.719254,27.500328 157.480362,18.840511 
	C155.666718,16.424135 154.198502,14.467978 152.557846,12.282073 
	C146.211716,16.896067 140.184830,21.277958 133.576859,26.072435 
z"/>
<path fill="#EAD8BD" opacity="1.000000" stroke="none" 
	d="
M63.000000,161.000000 
	C62.555553,161.000000 62.111111,161.000000 61.384544,160.655472 
	C60.479080,160.091766 59.855740,159.872589 59.232399,159.653397 
	C59.154930,160.102264 59.077461,160.551132 59.000000,161.000000 
	C57.285641,161.000000 55.571285,161.000000 53.522308,160.645447 
	C52.791790,160.527252 52.395897,160.763626 52.000000,161.000000 
	C49.629444,161.000000 47.258884,161.000000 44.580959,160.675369 
	C43.849060,160.567169 43.424530,160.783585 43.000000,161.000000 
	C42.555553,161.000000 42.111111,161.000000 41.199768,160.667755 
	C37.975010,158.883987 34.579697,158.023346 32.581505,155.867661 
	C27.084501,149.937424 22.173155,143.464325 17.108402,136.832062 
	C19.694914,136.800888 22.210802,137.096024 24.709217,137.499420 
	C27.370167,137.929047 30.014582,138.461090 32.666218,138.948410 
	C32.918049,138.359573 33.169884,137.770737 33.421719,137.181900 
	C31.026575,134.522797 28.492348,131.973572 26.278454,129.171295 
	C24.364429,126.748573 21.948387,124.245903 21.269936,121.415298 
	C19.427120,113.726776 18.038849,105.885666 17.136335,98.028557 
	C16.344746,91.137123 17.856352,90.120537 24.983236,90.834373 
	C29.927887,91.329643 34.885345,91.697052 40.930950,92.215378 
	C38.368694,88.758286 36.624508,86.404968 35.222832,83.910393 
	C38.034733,82.886093 40.504128,82.003059 43.426254,81.053314 
	C51.169361,81.441925 58.455856,82.003693 65.753128,82.269272 
	C67.352470,82.327484 68.990196,81.331017 70.610252,80.820251 
	C69.860962,79.114159 69.418327,77.165047 68.298820,75.752312 
	C65.933388,72.767288 63.214142,70.062622 60.640030,67.242950 
	C60.942337,66.777130 61.244644,66.311302 61.546955,65.845474 
	C70.705399,66.941307 79.870560,67.987503 89.010063,69.223412 
	C89.774269,69.326752 90.800499,70.624718 90.969154,71.508141 
	C92.417824,79.096382 93.696999,86.716972 95.126511,94.898651 
	C93.703506,93.758636 92.815125,93.046928 91.948441,92.392670 
	C91.735489,92.413376 91.603615,92.284714 91.163895,91.693275 
	C90.470955,91.559776 90.188606,91.797142 89.962494,92.018921 
	C90.018723,92.003334 90.056267,92.113831 90.431702,91.825684 
	C85.754478,86.291367 75.808990,86.162018 69.767616,91.183006 
	C69.420090,91.207321 69.267799,91.364426 69.297707,91.416107 
	C69.393806,91.582214 69.557213,91.709373 69.839188,92.015671 
	C69.983727,92.179787 69.924400,92.613121 69.539215,92.797760 
	C64.949722,96.398582 62.768871,101.034431 64.335510,106.072639 
	C66.279793,112.325310 68.919258,118.737877 77.704102,118.924484 
	C83.839249,119.880692 88.508469,117.873444 92.611145,114.008041 
	C97.314621,109.576599 97.439941,104.064934 95.887749,97.115822 
	C98.231163,99.709709 99.694656,101.329636 101.401001,103.196571 
	C103.968544,109.076584 107.542992,114.538933 108.340706,120.380470 
	C109.722359,130.498047 101.752785,145.031570 90.696533,149.038269 
	C89.930305,149.608383 89.458481,150.151047 88.680878,150.787231 
	C88.166023,150.922272 87.956932,150.963776 87.484818,151.128143 
	C85.433891,151.804001 83.645996,152.357025 81.781219,152.933823 
	C84.170105,154.380463 85.480530,155.174011 86.775436,156.313416 
	C86.173279,158.106186 85.586639,159.553085 85.000000,161.000000 
	C78.645599,161.000000 72.291206,161.000000 65.710686,160.739471 
	C66.598236,159.765015 67.711906,159.051056 68.825577,158.337112 
	C68.378700,157.780853 67.931831,157.224579 67.484955,156.668304 
	C65.989967,158.112213 64.494987,159.556107 63.000000,161.000000 
M75.284546,145.471588 
	C74.481514,141.629974 74.037086,137.663742 72.759224,133.987152 
	C71.779922,131.169556 69.397331,129.186325 66.159920,131.303268 
	C63.142365,133.276474 58.962044,134.808609 61.019932,140.797791 
	C61.016220,141.956161 60.630882,143.296234 61.079811,144.239090 
	C62.468353,147.155289 63.506851,151.168579 65.912018,152.455200 
	C69.647583,154.453522 73.282372,151.383881 75.284546,145.471588 
M32.997204,101.013374 
	C32.997204,101.013374 33.068611,101.020615 32.309578,101.000496 
	C27.482731,102.117455 26.011557,106.251358 24.545137,110.107277 
	C22.156565,116.387962 26.791817,125.607918 32.872936,127.798210 
	C38.577415,131.931519 45.042229,131.520935 53.166592,126.509384 
	C59.279072,122.738869 62.566242,114.629982 60.625870,108.108612 
	C58.437416,100.753479 51.881809,95.480652 44.387173,96.144981 
	C40.673771,96.474136 35.944164,95.509087 33.380318,100.422150 
	C33.298645,100.671021 33.169270,100.891960 32.997204,101.013374 
M80.683723,155.224289 
	C78.411354,151.017487 78.142410,154.712006 77.421738,156.570343 
	C78.363731,156.296356 79.305725,156.022369 80.683723,155.224289 
M74.721077,157.115723 
	C74.532623,156.582993 74.344170,156.050247 74.155724,155.517532 
	C73.881912,155.643036 73.608109,155.768539 73.334297,155.894028 
	C73.653168,156.441559 73.972038,156.989105 74.721077,157.115723 
M70.291519,156.901382 
	C70.476395,157.435699 70.661270,157.970016 70.846146,158.504333 
	C71.120628,158.377274 71.395119,158.250229 71.669601,158.123169 
	C71.352577,157.574966 71.035553,157.026749 70.291519,156.901382 
z"/>
<path fill="#070608" opacity="1.000000" stroke="none" 
	d="
M1.000000,150.000000 
	C1.000000,120.312439 1.000000,90.624878 1.224509,60.225143 
	C10.130093,48.082939 20.073299,38.168621 33.909359,32.902618 
	C34.287815,33.284344 34.446896,33.429272 34.424759,33.852943 
	C29.327675,40.116890 23.191931,45.475269 19.732143,52.208633 
	C10.550822,70.077126 4.809255,88.901772 6.933935,109.596344 
	C8.353396,123.422020 11.458023,136.424316 20.126131,147.475525 
	C23.949821,152.350433 28.680883,156.513672 33.000000,161.000000 
	C27.311958,161.000000 21.623919,161.000000 15.277420,160.716995 
	C10.079309,156.955994 5.539655,153.477997 1.000000,150.000000 
z"/>
<path fill="#F0F0E5" opacity="1.000000" stroke="none" 
	d="
M1.000000,49.428463 
	C8.731441,42.812439 16.224312,36.293354 24.251554,30.516850 
	C35.622654,22.334068 49.098209,19.850811 62.620605,18.153208 
	C66.077919,17.719175 70.090393,18.407682 73.263466,19.858480 
	C77.083473,21.605066 80.104126,21.806147 83.898247,19.919649 
	C89.820000,16.975271 95.962189,14.385221 102.216240,12.244799 
	C104.516495,11.457544 108.187012,11.396071 109.841721,12.729468 
	C112.689217,15.024068 110.157722,17.790482 108.449944,20.046408 
	C106.358566,22.809067 104.238914,25.550318 101.628204,28.957670 
	C103.684753,29.376011 105.325661,29.396534 106.648537,30.055492 
	C108.439476,30.947603 111.338707,32.340912 111.328911,33.498615 
	C111.313263,35.348225 109.708214,37.876945 108.034485,38.869041 
	C104.989532,40.673923 101.401093,41.561924 96.655876,43.355469 
	C102.026703,45.883099 106.113922,47.834579 110.225113,49.734177 
	C115.049423,51.963284 120.099373,53.801983 124.643967,56.497120 
	C126.903130,57.836903 129.654312,60.741360 129.609818,62.884575 
	C129.567017,64.946495 126.490814,67.376755 124.229408,68.849968 
	C121.524696,70.611954 118.270164,71.529945 114.659409,73.066399 
	C122.977623,81.540543 125.017464,92.643761 129.135361,102.839600 
	C134.541367,116.224731 131.567947,127.714653 122.794518,138.428970 
	C115.561165,147.262512 107.108849,154.623917 97.116684,160.675751 
	C94.958336,161.000000 92.916664,161.000000 90.614273,160.689789 
	C104.218864,154.168564 115.122421,144.633087 123.257698,131.755585 
	C126.903107,125.985191 130.471649,120.346848 128.748367,113.164848 
	C127.682800,108.724030 126.193588,104.384865 124.895569,99.713379 
	C124.578178,98.953514 124.259766,98.480331 124.001678,97.652954 
	C123.659164,96.197441 123.256340,95.096107 122.857117,93.708656 
	C122.530571,92.959953 122.200432,92.497375 121.927345,91.774734 
	C121.945732,91.341446 121.907066,91.168213 121.883011,90.704720 
	C121.556419,89.951141 121.215218,89.487823 120.864151,88.691574 
	C120.008263,86.872765 119.162231,85.386887 118.248138,83.546173 
	C117.147003,82.389313 116.113930,81.587288 114.939255,80.471268 
	C113.034363,77.204338 111.271080,74.251411 109.631027,71.504845 
	C114.113876,69.753326 118.615631,68.169167 122.948059,66.210472 
	C124.545570,65.488235 125.743874,63.882988 127.124268,62.680489 
	C125.779564,61.387047 124.649742,59.653881 123.054024,58.874088 
	C114.889946,54.884457 106.567741,51.219070 98.390213,47.255871 
	C96.339996,46.262249 94.619644,44.588020 91.985390,42.672180 
	C98.529831,39.710323 103.877342,37.290165 109.224854,34.870007 
	C109.078651,34.382999 108.932442,33.895992 108.786240,33.408989 
	C104.782471,32.825188 100.778709,32.241386 96.065941,31.554207 
	C100.463364,25.725615 104.542542,20.318829 108.621727,14.912043 
	C108.304573,14.528047 107.987419,14.144051 107.670265,13.760055 
	C105.685974,14.304542 103.618118,14.647645 101.732513,15.429980 
	C95.174232,18.150982 88.728592,21.149368 82.127960,23.758564 
	C80.297966,24.481953 78.079155,24.221725 75.790031,24.153666 
	C72.487808,22.921375 69.415649,21.092684 66.384758,21.158705 
	C60.630962,21.284040 54.689201,21.773312 49.199085,23.384434 
	C30.005981,29.016813 13.480645,38.997585 1.000000,55.000000 
	C1.000000,53.285641 1.000000,51.571285 1.000000,49.428463 
z"/>
<path fill="#651A94" opacity="1.000000" stroke="none" 
	d="
M1.000000,55.416664 
	C13.480645,38.997585 30.005981,29.016813 49.199085,23.384434 
	C54.689201,21.773312 60.630962,21.284040 66.384758,21.158705 
	C69.415649,21.092684 72.487808,22.921375 75.735428,24.550316 
	C75.125511,26.107250 74.495483,27.409187 73.489792,27.845770 
	C65.890785,31.144585 58.230183,34.303513 50.551933,37.415119 
	C49.654911,37.778641 48.533356,37.588093 47.033871,37.685822 
	C48.659603,34.281612 49.991402,31.492889 51.517632,28.297041 
	C49.897697,28.197348 49.353664,28.008465 48.945728,28.167873 
	C47.716694,28.648130 46.509796,29.206978 45.348602,29.835562 
	C32.067703,37.024876 24.267315,48.246662 17.873180,61.938118 
	C9.530769,79.801338 8.128084,97.963837 10.283051,116.717781 
	C11.086883,123.713249 14.698671,130.386063 17.030090,137.206009 
	C22.173155,143.464325 27.084501,149.937424 32.581505,155.867661 
	C34.579697,158.023346 37.975010,158.883987 40.866440,160.667755 
	C38.629444,161.000000 36.258884,161.000000 33.444164,161.000000 
	C28.680883,156.513672 23.949821,152.350433 20.126131,147.475525 
	C11.458023,136.424316 8.353396,123.422020 6.933935,109.596344 
	C4.809255,88.901772 10.550822,70.077126 19.732143,52.208633 
	C23.191931,45.475269 29.327675,40.116890 34.656837,33.732315 
	C35.273613,32.830456 35.477077,32.327976 35.680542,31.825499 
	C35.017025,32.105606 34.353504,32.385712 33.689987,32.665817 
	C20.073299,38.168621 10.130093,48.082939 1.224509,59.756485 
	C1.000000,58.611111 1.000000,57.222221 1.000000,55.416664 
M53.250866,26.488306 
	C53.250866,28.533527 53.250866,30.578751 53.250866,33.311203 
	C59.587811,30.708895 65.503754,28.279474 72.021599,25.602875 
	C65.298630,22.622585 59.582237,24.733694 53.250866,26.488306 
z"/>
<path fill="#621891" opacity="1.000000" stroke="none" 
	d="
M122.853516,93.994781 
	C123.256340,95.096107 123.659164,96.197441 123.792938,97.828751 
	C123.980774,98.905846 124.437668,99.452957 124.894554,100.000069 
	C126.193588,104.384865 127.682800,108.724030 128.748367,113.164848 
	C130.471649,120.346848 126.903107,125.985191 123.257698,131.755585 
	C115.122421,144.633087 104.218864,154.168564 90.176773,160.689789 
	C88.611107,161.000000 87.222221,161.000000 85.416664,161.000000 
	C85.586639,159.553085 86.173279,158.106186 86.919815,156.028839 
	C87.302437,153.934021 87.525139,152.469666 87.747849,151.005295 
	C87.956932,150.963776 88.166023,150.922272 88.965439,150.799194 
	C90.034164,150.148712 90.512550,149.579758 90.990936,149.010803 
	C101.752785,145.031570 109.722359,130.498047 108.340706,120.380470 
	C107.542992,114.538933 103.968544,109.076584 101.396675,102.847443 
	C102.045120,101.633507 102.940742,101.015701 103.904800,100.724792 
	C104.570366,102.233665 105.124481,103.439743 105.771034,104.594040 
	C115.809692,122.516129 112.560287,137.571945 96.185387,149.689560 
	C93.825264,151.436081 91.918007,153.794571 89.427315,156.236374 
	C90.784828,156.611420 91.178177,156.862717 91.378212,156.755020 
	C104.960419,149.441635 116.219292,139.598694 123.612366,125.913795 
	C125.189415,122.994591 126.516945,118.900055 125.733513,115.935158 
	C123.045494,105.762390 119.368599,95.850914 115.966827,85.553436 
	C115.639282,84.516037 115.413612,83.765007 115.512497,83.052162 
	C116.663445,83.360565 117.489822,83.630791 118.316208,83.901016 
	C119.162231,85.386887 120.008263,86.872765 120.663986,88.871506 
	C120.938591,89.921249 121.403496,90.458115 121.868408,90.994980 
	C121.907066,91.168213 121.945732,91.341446 121.730553,91.953453 
	C121.935638,92.926414 122.394577,93.460602 122.853516,93.994781 
z"/>
<path fill="#FDFDF2" opacity="1.000000" stroke="none" 
	d="
M161.000000,52.555836 
	C152.321747,57.389965 143.643494,61.779926 134.545273,66.382332 
	C133.354919,64.142082 132.305801,62.167637 130.988586,59.688637 
	C140.929459,54.723400 150.602295,49.892040 160.637573,45.030342 
	C161.000000,47.370556 161.000000,49.741116 161.000000,52.555836 
z"/>
<path fill="#FDFDF3" opacity="1.000000" stroke="none" 
	d="
M161.000000,84.555832 
	C154.889771,86.285103 148.779541,87.570213 142.220505,88.949707 
	C141.633453,86.724838 141.063919,84.566322 140.349548,81.858910 
	C147.132812,80.207512 153.667786,78.616562 160.601379,77.012810 
	C161.000000,79.370560 161.000000,81.741112 161.000000,84.555832 
z"/>
<path fill="#621B92" opacity="1.000000" stroke="none" 
	d="
M1.000000,150.416656 
	C5.539655,153.477997 10.079309,156.955994 14.809481,160.716995 
	C12.958333,161.000000 10.916667,161.000000 8.391018,160.660370 
	C5.604692,158.547150 3.302347,156.773575 1.000001,155.000000 
	C1.000000,153.611115 1.000000,152.222214 1.000000,150.416656 
z"/>
<path fill="#F6F7EC" opacity="1.000000" stroke="none" 
	d="
M1.000001,155.399994 
	C3.302347,156.773575 5.604692,158.547150 7.953518,160.660370 
	C6.611111,161.000000 5.222222,161.000000 3.394027,160.689529 
	C2.303148,159.919373 1.651574,159.459686 1.000000,159.000000 
	C1.000000,157.933334 1.000000,156.866653 1.000001,155.399994 
z"/>
<path fill="#E4D3BA" opacity="1.000000" stroke="none" 
	d="
M63.333328,161.000000 
	C64.494987,159.556107 65.989967,158.112213 67.484955,156.668304 
	C67.931831,157.224579 68.378700,157.780853 68.825577,158.337112 
	C67.711906,159.051056 66.598236,159.765015 65.242279,160.739471 
	C64.555557,161.000000 64.111107,161.000000 63.333328,161.000000 
z"/>
<path fill="#120F0E" opacity="1.000000" stroke="none" 
	d="
M59.333328,161.000000 
	C59.077461,160.551132 59.154930,160.102264 59.232399,159.653397 
	C59.855740,159.872589 60.479080,160.091766 61.051212,160.655472 
	C60.555553,161.000000 60.111111,161.000000 59.333328,161.000000 
z"/>
<path fill="#F2F101" opacity="1.000000" stroke="none" 
	d="
M1.000001,159.500000 
	C1.651574,159.459686 2.303148,159.919373 2.977361,160.689529 
	C2.333334,160.666672 1.666668,160.333328 1.000001,159.500000 
z"/>
<path fill="#090210" opacity="1.000000" stroke="none" 
	d="
M43.250000,161.000000 
	C43.424530,160.783585 43.849060,160.567169 44.136795,160.675369 
	C44.000000,161.000000 43.500000,161.000000 43.250000,161.000000 
z"/>
<path fill="#120F0E" opacity="1.000000" stroke="none" 
	d="
M52.250000,161.000000 
	C52.395897,160.763626 52.791790,160.527252 53.093842,160.645447 
	C53.000000,161.000000 52.500000,161.000000 52.250000,161.000000 
z"/>
<path fill="#FDFDF4" opacity="1.000000" stroke="none" 
	d="
M133.867401,25.866142 
	C140.184830,21.277958 146.211716,16.896067 152.557846,12.282073 
	C154.198502,14.467978 155.666718,16.424135 157.480362,18.840511 
	C145.719254,27.500328 134.161102,36.010704 122.198608,44.818798 
	C120.615005,42.694466 119.159714,40.742256 117.312531,38.264347 
	C122.828377,34.129608 128.202621,30.101023 133.867401,25.866142 
z"/>
<path fill="#020203" opacity="1.000000" stroke="none" 
	d="
M115.187935,83.013985 
	C115.413612,83.765007 115.639282,84.516037 115.917969,85.913773 
	C115.962967,88.018250 116.362495,89.651459 115.831833,90.884247 
	C115.305656,92.106598 113.453529,93.981560 112.849709,93.759262 
	C106.268158,91.336159 104.693085,95.297379 103.836357,100.397903 
	C102.940742,101.015701 102.045120,101.633507 101.153824,102.600441 
	C99.694656,101.329636 98.231163,99.709709 95.887749,97.115822 
	C97.439941,104.064934 97.314621,109.576599 92.611145,114.008041 
	C88.508469,117.873444 83.839249,119.880692 77.649994,118.466156 
	C77.099052,116.988777 77.029808,115.980576 77.366402,114.810577 
	C78.907745,114.767677 80.189728,115.272026 81.142479,114.909981 
	C82.393669,114.434540 84.133598,113.382477 84.275208,112.381927 
	C84.412521,111.411652 82.953468,109.500046 81.905151,109.257675 
	C80.581963,108.951736 78.413475,109.475716 77.625778,110.457191 
	C76.801727,111.483986 77.182945,113.478058 76.795929,115.424484 
	C69.736549,109.388435 67.719719,101.604347 69.924400,92.613121 
	C69.924400,92.613121 69.983727,92.179787 69.917313,91.931015 
	C69.850906,91.682243 70.046265,91.267540 70.046265,91.267540 
	C75.808990,86.162018 85.754478,86.291367 90.062210,91.759109 
	C85.741455,89.388435 82.039833,89.133743 79.258026,92.743767 
	C76.599716,96.193542 77.613976,99.955505 80.149384,103.242134 
	C82.804184,106.683517 86.192726,107.071518 89.844742,105.095932 
	C93.955650,102.872078 93.529655,99.390976 92.240425,95.671379 
	C91.885109,94.646233 92.017906,93.451912 91.926735,92.335213 
	C92.815125,93.046928 93.703506,93.758636 95.126511,94.898651 
	C93.696999,86.716972 92.417824,79.096382 90.969154,71.508141 
	C90.800499,70.624718 89.774269,69.326752 89.010063,69.223412 
	C79.870560,67.987503 70.705399,66.941307 61.546955,65.845474 
	C61.244644,66.311302 60.942337,66.777130 60.640030,67.242950 
	C63.214142,70.062622 65.933388,72.767288 68.298820,75.752312 
	C69.418327,77.165047 69.860962,79.114159 70.610252,80.820251 
	C68.990196,81.331017 67.352470,82.327484 65.753128,82.269272 
	C58.455856,82.003693 51.169361,81.441925 43.091484,80.847549 
	C37.577225,80.160202 32.850479,79.611923 28.123732,79.063644 
	C27.935472,79.735641 27.747211,80.407631 27.558952,81.079628 
	C29.999409,82.070305 32.439865,83.060974 34.880322,84.051651 
	C36.624508,86.404968 38.368694,88.758286 40.930950,92.215378 
	C34.885345,91.697052 29.927887,91.329643 24.983236,90.834373 
	C17.856352,90.120537 16.344746,91.137123 17.136335,98.028557 
	C18.038849,105.885666 19.427120,113.726776 21.269936,121.415298 
	C21.948387,124.245903 24.364429,126.748573 26.278454,129.171295 
	C28.492348,131.973572 31.026575,134.522797 33.421719,137.181900 
	C33.169884,137.770737 32.918049,138.359573 32.666218,138.948410 
	C30.014582,138.461090 27.370167,137.929047 24.709217,137.499420 
	C22.210802,137.096024 19.694914,136.800888 17.108402,136.832062 
	C14.698671,130.386063 11.086883,123.713249 10.283051,116.717781 
	C8.128084,97.963837 9.530769,79.801338 17.873180,61.938118 
	C24.267315,48.246662 32.067703,37.024876 45.348602,29.835562 
	C46.509796,29.206978 47.716694,28.648130 48.945728,28.167873 
	C49.353664,28.008465 49.897697,28.197348 51.517632,28.297041 
	C49.991402,31.492889 48.659603,34.281612 47.033871,37.685822 
	C48.533356,37.588093 49.654911,37.778641 50.551933,37.415119 
	C58.230183,34.303513 65.890785,31.144585 73.489792,27.845770 
	C74.495483,27.409187 75.125511,26.107250 75.984116,24.809429 
	C78.079155,24.221725 80.297966,24.481953 82.127960,23.758564 
	C88.728592,21.149368 95.174232,18.150982 101.732513,15.429980 
	C103.618118,14.647645 105.685974,14.304542 107.670265,13.760055 
	C107.987419,14.144051 108.304573,14.528047 108.621727,14.912043 
	C104.542542,20.318829 100.463364,25.725615 96.065941,31.554207 
	C100.778709,32.241386 104.782471,32.825188 108.786240,33.408989 
	C108.932442,33.895992 109.078651,34.382999 109.224854,34.870007 
	C103.877342,37.290165 98.529831,39.710323 91.985390,42.672180 
	C94.619644,44.588020 96.339996,46.262249 98.390213,47.255871 
	C106.567741,51.219070 114.889946,54.884457 123.054024,58.874088 
	C124.649742,59.653881 125.779564,61.387047 127.124268,62.680489 
	C125.743874,63.882988 124.545570,65.488235 122.948059,66.210472 
	C118.615631,68.169167 114.113876,69.753326 109.631027,71.504845 
	C111.271080,74.251411 113.034363,77.204338 114.875320,80.843269 
	C115.031319,82.024170 115.109627,82.519081 115.187935,83.013985 
z"/>
<path fill="#090808" opacity="1.000000" stroke="none" 
	d="
M33.551281,100.077660 
	C35.944164,95.509087 40.673771,96.474136 44.387173,96.144981 
	C51.881809,95.480652 58.437416,100.753479 60.625870,108.108612 
	C62.566242,114.629982 59.279072,122.738869 53.166592,126.509384 
	C45.042229,131.520935 38.577415,131.931519 32.817345,127.020096 
	C28.710876,117.784332 30.574160,109.398636 33.068611,101.020615 
	C33.068611,101.020615 32.997204,101.013374 33.218918,100.942581 
	C33.440632,100.871796 33.781254,100.514259 33.781254,100.514259 
	C33.781254,100.514259 33.551281,100.077660 33.551281,100.077660 
M45.996201,99.200523 
	C41.920654,100.335793 40.741165,103.113846 40.932873,107.153214 
	C41.144836,111.619461 42.507896,115.466957 46.331081,117.766823 
	C50.019829,119.985832 57.002800,116.831955 57.901867,112.948639 
	C59.543095,105.859726 54.292316,99.326012 45.996201,99.200523 
M44.553158,119.339424 
	C43.032951,119.133446 41.209988,118.311104 40.066795,118.872658 
	C38.530163,119.627449 37.173241,121.296600 36.460236,122.894928 
	C36.195324,123.488777 37.890533,125.815506 38.825954,125.902000 
	C40.601669,126.066177 42.836903,125.641266 44.177731,124.575745 
	C45.059841,123.874741 44.710346,121.623924 44.553158,119.339424 
z"/>
<path fill="#F6F6F6" opacity="1.000000" stroke="none" 
	d="
M91.948441,92.392670 
	C92.017906,93.451912 91.885109,94.646233 92.240425,95.671379 
	C93.529655,99.390976 93.955650,102.872078 89.844742,105.095932 
	C86.192726,107.071518 82.804184,106.683517 80.149384,103.242134 
	C77.613976,99.955505 76.599716,96.193542 79.258026,92.743767 
	C82.039833,89.133743 85.741455,89.388435 89.686783,92.047256 
	C90.056267,92.113831 90.018723,92.003334 90.102058,92.391052 
	C90.648430,92.540565 91.111465,92.302353 91.574501,92.064140 
	C91.603615,92.284714 91.735489,92.413376 91.948441,92.392670 
z"/>
<path fill="#F4F4F4" opacity="1.000000" stroke="none" 
	d="
M32.689095,101.010559 
	C30.574160,109.398636 28.710876,117.784332 32.754559,126.620384 
	C26.791817,125.607918 22.156565,116.387962 24.545137,110.107277 
	C26.011557,106.251358 27.482731,102.117455 32.689095,101.010559 
z"/>
<path fill="#F4F4F4" opacity="1.000000" stroke="none" 
	d="
M76.960564,114.972374 
	C77.029808,115.980576 77.099052,116.988777 77.222412,118.455307 
	C68.919258,118.737877 66.279793,112.325310 64.335510,106.072639 
	C62.768871,101.034431 64.949722,96.398582 69.539215,92.797760 
	C67.719719,101.604347 69.736549,109.388435 76.791435,115.390594 
	C77.028336,114.981529 76.960564,114.972374 76.960564,114.972374 
z"/>
<path fill="#F49999" opacity="1.000000" stroke="none" 
	d="
M74.979317,146.223877 
	C73.282372,151.383881 69.647583,154.453522 65.912018,152.455200 
	C63.506851,151.168579 62.468353,147.155289 61.079811,144.239090 
	C60.630882,143.296234 61.016220,141.956161 61.471451,140.390213 
	C67.779076,138.916779 71.204597,142.935577 74.979317,146.223877 
z"/>
<path fill="#C3130E" opacity="1.000000" stroke="none" 
	d="
M75.131927,145.847733 
	C71.204597,142.935577 67.779076,138.916779 61.508247,139.946732 
	C58.962044,134.808609 63.142365,133.276474 66.159920,131.303268 
	C69.397331,129.186325 71.779922,131.169556 72.759224,133.987152 
	C74.037086,137.663742 74.481514,141.629974 75.131927,145.847733 
z"/>
<path fill="#CCBEA8" opacity="1.000000" stroke="none" 
	d="
M35.222832,83.910393 
	C32.439865,83.060974 29.999409,82.070305 27.558952,81.079628 
	C27.747211,80.407631 27.935472,79.735641 28.123732,79.063644 
	C32.850479,79.611923 37.577225,80.160202 42.638744,80.914246 
	C40.504128,82.003059 38.034733,82.886093 35.222832,83.910393 
z"/>
<path fill="#E4D3BA" opacity="1.000000" stroke="none" 
	d="
M87.484818,151.128143 
	C87.525139,152.469666 87.302437,153.934021 86.935349,155.682983 
	C85.480530,155.174011 84.170105,154.380463 81.781219,152.933823 
	C83.645996,152.357025 85.433891,151.804001 87.484818,151.128143 
z"/>
<path fill="#E4D3BA" opacity="1.000000" stroke="none" 
	d="
M80.465721,155.486328 
	C79.305725,156.022369 78.363731,156.296356 77.421738,156.570343 
	C78.142410,154.712006 78.411354,151.017487 80.465721,155.486328 
z"/>
<path fill="#E4D3BA" opacity="1.000000" stroke="none" 
	d="
M74.505989,157.326172 
	C73.972038,156.989105 73.653168,156.441559 73.334305,155.894043 
	C73.608109,155.768539 73.881912,155.643036 74.155716,155.517517 
	C74.344170,156.050247 74.532623,156.582993 74.505989,157.326172 
z"/>
<path fill="#E4D3BA" opacity="1.000000" stroke="none" 
	d="
M70.505020,156.689972 
	C71.035553,157.026749 71.352577,157.574966 71.669601,158.123169 
	C71.395119,158.250229 71.120628,158.377274 70.846146,158.504333 
	C70.661270,157.970016 70.476395,157.435699 70.505020,156.689972 
z"/>
<path fill="#E4D3BA" opacity="1.000000" stroke="none" 
	d="
M90.696533,149.038269 
	C90.512550,149.579758 90.034164,150.148712 89.271217,150.705688 
	C89.458481,150.151047 89.930305,149.608383 90.696533,149.038269 
z"/>
<path fill="#F4F4F4" opacity="1.000000" stroke="none" 
	d="
M33.465797,100.249908 
	C33.551281,100.077660 33.781254,100.514259 33.781254,100.514259 
	C33.781254,100.514259 33.440632,100.871796 33.216408,100.978378 
	C33.169270,100.891960 33.298645,100.671021 33.465797,100.249908 
z"/>
<path fill="#020203" opacity="1.000000" stroke="none" 
	d="
M91.163895,91.693275 
	C91.111465,92.302353 90.648430,92.540565 90.045830,92.406647 
	C90.188606,91.797142 90.470955,91.559776 91.163895,91.693275 
z"/>
<path fill="#070606" opacity="1.000000" stroke="none" 
	d="
M69.767616,91.183006 
	C70.046265,91.267540 69.850906,91.682243 69.772781,91.766907 
	C69.557213,91.709373 69.393806,91.582214 69.297707,91.416107 
	C69.267799,91.364426 69.420090,91.207321 69.767616,91.183006 
z"/>
<path fill="#5C158C" opacity="1.000000" stroke="none" 
	d="
M115.512497,83.052162 
	C115.109627,82.519081 115.031319,82.024170 115.016937,81.157265 
	C116.113930,81.587288 117.147003,82.389313 118.248138,83.546173 
	C117.489822,83.630791 116.663445,83.360565 115.512497,83.052162 
z"/>
<path fill="#5C158C" opacity="1.000000" stroke="none" 
	d="
M124.895569,99.713379 
	C124.437668,99.452957 123.980774,98.905846 123.732620,98.182938 
	C124.259766,98.480331 124.578178,98.953514 124.895569,99.713379 
z"/>
<path fill="#5C158C" opacity="1.000000" stroke="none" 
	d="
M122.857117,93.708656 
	C122.394577,93.460602 121.935638,92.926414 121.673500,92.213509 
	C122.200432,92.497375 122.530571,92.959953 122.857117,93.708656 
z"/>
<path fill="#5C158C" opacity="1.000000" stroke="none" 
	d="
M121.883011,90.704720 
	C121.403496,90.458115 120.938591,89.921249 120.673851,89.204445 
	C121.215218,89.487823 121.556419,89.951141 121.883011,90.704720 
z"/>
<path fill="#08060A" opacity="1.000000" stroke="none" 
	d="
M53.541679,26.223846 
	C59.582237,24.733694 65.298630,22.622585 72.021599,25.602875 
	C65.503754,28.279474 59.587811,30.708895 53.250866,33.311203 
	C53.250866,30.578751 53.250866,28.533527 53.541679,26.223846 
z"/>
<path fill="#070608" opacity="1.000000" stroke="none" 
	d="
M33.909359,32.902618 
	C34.353504,32.385712 35.017025,32.105606 35.680542,31.825499 
	C35.477077,32.327976 35.273613,32.830456 34.838062,33.453568 
	C34.446896,33.429272 34.287815,33.284344 33.909359,32.902618 
z"/>
<path fill="#070608" opacity="1.000000" stroke="none" 
	d="
M103.904800,100.724792 
	C104.693085,95.297379 106.268158,91.336159 112.849709,93.759262 
	C113.453529,93.981560 115.305656,92.106598 115.831833,90.884247 
	C116.362495,89.651459 115.962967,88.018250 116.019836,86.200150 
	C119.368599,95.850914 123.045494,105.762390 125.733513,115.935158 
	C126.516945,118.900055 125.189415,122.994591 123.612366,125.913795 
	C116.219292,139.598694 104.960419,149.441635 91.378212,156.755020 
	C91.178177,156.862717 90.784828,156.611420 89.427315,156.236374 
	C91.918007,153.794571 93.825264,151.436081 96.185387,149.689560 
	C112.560287,137.571945 115.809692,122.516129 105.771034,104.594040 
	C105.124481,103.439743 104.570366,102.233665 103.904800,100.724792 
z"/>
<path fill="#EEEEEE" opacity="1.000000" stroke="none" 
	d="
M77.032829,115.015427 
	C77.182945,113.478058 76.801727,111.483986 77.625778,110.457191 
	C78.413475,109.475716 80.581963,108.951736 81.905151,109.257675 
	C82.953468,109.500046 84.412521,111.411652 84.275208,112.381927 
	C84.133598,113.382477 82.393669,114.434540 81.142479,114.909981 
	C80.189728,115.272026 78.907745,114.767677 77.366402,114.810577 
	C76.960564,114.972374 77.028336,114.981529 77.032829,115.015427 
z"/>
<path fill="#F7F7F7" opacity="1.000000" stroke="none" 
	d="
M46.392864,99.160858 
	C54.292316,99.326012 59.543095,105.859726 57.901867,112.948639 
	C57.002800,116.831955 50.019829,119.985832 46.331081,117.766823 
	C42.507896,115.466957 41.144836,111.619461 40.932873,107.153214 
	C40.741165,103.113846 41.920654,100.335793 46.392864,99.160858 
z"/>
<path fill="#F1F1F1" opacity="1.000000" stroke="none" 
	d="
M44.732761,119.703278 
	C44.710346,121.623924 45.059841,123.874741 44.177731,124.575745 
	C42.836903,125.641266 40.601669,126.066177 38.825954,125.902000 
	C37.890533,125.815506 36.195324,123.488777 36.460236,122.894928 
	C37.173241,121.296600 38.530163,119.627449 40.066795,118.872658 
	C41.209988,118.311104 43.032951,119.133446 44.732761,119.703278 
z"/>
</svg>