<svg version="1.1" id="Layer_1" xmlns="http://www.w3.org/2000/svg" xmlns:xlink="http://www.w3.org/1999/xlink" x="0px" y="0px"
	 width="100%" viewBox="0 0 70 70" enable-background="new 0 0 70 70" xml:space="preserve">
<path fill="#ED4568" opacity="1.000000" stroke="none" 
	d="
M14.999999,71.000000 
	C10.342276,71.000000 5.684552,71.000000 1.026828,71.000000 
	C1.017885,70.842598 1.001116,70.685188 1.001108,70.527786 
	C0.999946,47.405514 1.000000,24.283241 1.000000,1.080484 
	C24.234739,1.080484 47.469814,1.080484 70.852448,1.080484 
	C70.852448,24.332624 70.852448,47.666199 70.852448,71.000000 
	C66.937912,71.000000 62.945618,71.000000 58.478535,70.662827 
	C58.001186,69.875908 57.998627,69.426170 58.001701,68.990402 
	C58.007339,69.004372 57.977211,69.004303 58.190651,68.879288 
	C58.670460,68.546471 58.869354,68.286957 59.003643,67.991165 
	C59.006516,68.006607 58.975651,68.000778 59.189400,67.876495 
	C59.669811,67.544922 59.868938,67.285728 60.002792,66.991653 
	C60.005047,67.008652 59.971886,66.999847 60.111145,66.914749 
	C60.469097,66.530334 60.422611,66.260544 60.229408,65.671944 
	C61.233696,61.513741 62.454754,57.745731 62.936512,53.885464 
	C63.983311,45.497547 60.331871,37.981533 56.635834,31.062777 
	C54.197392,26.498161 48.958618,23.429501 44.888638,19.475248 
	C44.803589,19.259470 44.579010,18.852440 44.654537,18.504185 
	C44.404644,16.793869 44.079220,15.431805 43.664513,13.799546 
	C43.021046,13.032076 42.466862,12.534801 41.767445,11.757996 
	C40.861866,11.200977 40.101528,10.923492 39.265663,10.639259 
	C39.190136,10.632511 39.157436,10.780597 38.921120,10.513379 
	C37.759308,10.082115 36.833809,9.918069 35.752335,9.615945 
	C35.596355,9.477868 35.190880,9.382124 35.024166,9.209148 
	C34.536373,8.679656 34.215298,8.323140 33.921364,7.644015 
	C33.903236,6.893487 33.857960,6.465568 33.796654,5.718762 
	C33.177505,4.929394 32.574394,4.458910 31.710941,4.275331 
	C31.210365,6.650996 30.970131,8.739758 30.396023,10.915829 
	C28.531441,11.187980 27.000729,11.372823 25.330223,11.305079 
	C24.469709,10.738826 23.748991,10.425158 23.028275,10.111490 
	C22.901146,10.317077 22.774017,10.522663 22.646887,10.728250 
	C23.266731,11.317148 23.886576,11.906047 24.568249,12.746511 
	C24.994074,13.346719 25.358074,13.695358 25.832161,14.407885 
	C26.028458,15.521996 26.114670,16.272219 25.978941,17.138248 
	C25.602350,17.541773 25.447701,17.829491 25.196243,18.074142 
	C25.099436,18.031075 24.893911,17.979460 24.715258,18.123823 
	C24.315218,18.485836 24.141174,18.736378 24.119492,19.206539 
	C24.388718,19.630896 24.590387,19.830715 24.959766,20.218643 
	C25.360771,20.653437 25.631531,20.862314 25.941788,21.219061 
	C25.981289,21.366930 25.989271,21.672932 25.958981,21.976128 
	C25.909634,22.481565 25.890575,22.683807 25.695843,23.047934 
	C25.304121,23.445278 25.117931,23.702362 24.732185,24.253162 
	C24.343040,25.696413 24.183306,26.867567 24.014702,28.266552 
	C24.005831,28.494381 23.944920,28.946297 23.652405,29.086676 
	C21.896246,30.456156 20.432600,31.685257 18.694712,33.067688 
	C17.580236,34.402710 16.740004,35.584396 15.668324,36.930126 
	C15.038779,37.723362 14.640680,38.352554 14.144255,39.197212 
	C14.045928,39.412678 13.977171,39.881344 13.742156,39.919998 
	C13.507141,39.958652 13.039643,39.867264 12.871325,39.690849 
	C12.144080,39.623692 11.585152,39.732941 10.765721,40.015156 
	C10.330258,40.773460 10.155298,41.358807 9.642875,42.198647 
	C9.175253,45.303890 9.045096,48.154633 8.848555,51.400017 
	C8.922013,52.849072 9.061856,53.903488 9.171683,55.327793 
	C11.386629,60.277370 13.631591,64.857056 15.642359,69.639420 
	C15.272109,70.228065 15.136053,70.614029 14.999999,71.000000 
z"/>
<path fill="#FD984F" opacity="1.000000" stroke="none" 
	d="
M44.973686,19.691027 
	C48.958618,23.429501 54.197392,26.498161 56.635834,31.062777 
	C60.331871,37.981533 63.983311,45.497547 62.936512,53.885464 
	C62.454754,57.745731 61.233696,61.513741 60.185196,65.915405 
	C60.022518,66.507225 59.971886,66.999847 59.971886,66.999847 
	C59.971886,66.999847 60.005047,67.008652 59.782928,67.108719 
	C59.286850,67.414482 59.091797,67.678482 58.975651,68.000778 
	C58.975651,68.000778 59.006516,68.006607 58.783829,68.108597 
	C58.287697,68.417175 58.093052,68.681747 57.977211,69.004303 
	C57.977211,69.004303 58.007339,69.004372 57.741535,69.124229 
	C56.983822,69.829391 56.491913,70.414696 56.000000,71.000000 
	C55.555553,71.000000 55.111111,71.000000 54.303989,70.672043 
	C53.330463,69.210464 52.719612,68.076843 51.979794,66.740234 
	C51.676552,66.236794 51.416851,66.067162 51.173111,65.669472 
	C49.852444,63.199745 48.430382,61.088905 46.992569,58.650433 
	C46.304184,57.252037 45.631557,56.181274 44.956406,54.734047 
	C44.267620,51.498337 43.276829,49.004925 39.379478,49.784966 
	C39.238903,49.735699 39.151867,49.450779 39.390266,49.141624 
	C41.236794,48.144386 42.844913,47.456299 44.644199,46.686417 
	C43.196918,43.034325 39.939198,43.228264 36.924965,42.746216 
	C36.935738,42.529972 36.980778,42.099300 37.240566,41.840561 
	C37.633945,40.393169 37.767536,39.204514 37.908012,37.770687 
	C37.914898,37.525517 37.904243,37.035099 37.827148,36.809822 
	C37.567879,36.300922 37.311497,36.126171 36.974068,36.009781 
	C36.967232,35.959263 36.952858,35.858334 36.736496,35.635029 
	C34.991077,34.617374 33.462025,33.823021 31.729973,32.835480 
	C31.332357,32.124207 31.137737,31.606123 30.958967,30.739223 
	C30.992517,29.925175 31.010220,29.459944 31.150230,28.885677 
	C31.417494,28.436098 31.315592,28.170300 30.906013,27.674255 
	C30.262871,26.574900 29.680552,25.780537 29.081779,24.658581 
	C29.116598,23.681196 29.167871,23.031406 29.416756,22.319412 
	C29.614363,22.257210 29.978952,22.060362 30.181599,22.184147 
	C30.384245,22.307934 30.843937,22.428501 30.972649,22.647530 
	C31.639669,22.767859 32.177982,22.669159 32.841454,22.257866 
	C33.473892,21.572166 33.981171,21.199060 34.758614,20.687363 
	C35.355370,20.079185 35.681969,19.609602 36.199173,19.089008 
	C36.744259,18.960354 37.098736,18.882708 37.714424,18.558937 
	C39.969559,18.544233 41.963474,18.775650 43.884750,19.051247 
	C43.812107,19.095425 43.885723,19.248707 44.013699,19.416557 
	C44.141674,19.584406 44.548527,19.708918 44.548527,19.708918 
	C44.548527,19.708918 44.973686,19.691027 44.973686,19.691027 
z"/>
<path fill="#2F1202" opacity="1.000000" stroke="none" 
	d="
M15.876554,69.436745 
	C13.631591,64.857056 11.386629,60.277370 9.371629,55.049988 
	C9.729979,53.269341 9.858367,52.136391 9.990067,50.551437 
	C9.989032,47.381008 9.984686,44.662579 9.980339,41.944149 
	C10.155298,41.358807 10.330258,40.773460 11.095613,40.107498 
	C12.137218,39.973675 12.588431,39.920471 13.039643,39.867264 
	C13.039643,39.867264 13.507141,39.958652 14.085602,40.005623 
	C15.125926,39.991776 15.587790,39.930954 15.985607,39.943314 
	C15.921561,40.016499 15.951787,40.208630 16.172100,40.389080 
	C16.942989,40.687840 17.493565,40.806149 18.477894,40.943584 
	C20.941008,40.986507 22.970364,41.010307 25.020111,41.443111 
	C25.370213,43.973480 25.452398,46.178650 26.130730,48.181969 
	C26.486973,49.234055 28.107407,50.819038 28.780930,50.651516 
	C34.437366,49.244629 35.084171,53.201122 35.802322,56.998825 
	C35.342415,57.324051 35.080753,57.631142 34.794838,58.110001 
	C34.770584,58.281769 34.802311,58.627266 34.444344,58.718983 
	C31.704639,60.151211 29.322901,61.491722 26.678253,62.904182 
	C25.978848,63.241512 25.542353,63.506886 24.898827,64.044205 
	C23.630775,65.900467 22.569756,67.484779 21.384447,69.379211 
	C21.173439,70.126213 21.086721,70.563110 21.000000,71.000000 
	C21.000000,71.000000 20.500000,71.000000 20.130264,70.930405 
	C19.489525,70.759804 19.236015,70.806206 19.000000,71.000000 
	C18.250000,71.000000 17.500000,71.000000 16.342907,70.609283 
	C15.916060,69.957962 15.896308,69.697357 15.876554,69.436745 
z"/>
<path fill="#ECB490" opacity="1.000000" stroke="none" 
	d="
M26.941162,62.832233 
	C29.322901,61.491722 31.704639,60.151211 34.746361,58.840359 
	C35.824787,58.984093 36.243233,59.098164 36.717033,59.551704 
	C37.544987,61.264584 38.317589,62.637985 39.066685,64.311935 
	C39.325249,65.102829 39.607311,65.593178 40.029114,66.376732 
	C40.666100,67.078835 41.163345,67.487740 41.670391,67.933968 
	C41.680187,67.971291 41.699589,68.045990 41.688957,68.419014 
	C41.785553,69.528023 41.892776,70.264015 42.000000,71.000000 
	C39.629444,71.000000 37.258884,71.000000 34.061245,70.999496 
	C31.113060,68.779900 28.991961,66.560791 26.903677,63.965031 
	C26.938049,63.336334 26.939606,63.084286 26.941162,62.832233 
z"/>
<path fill="#240A01" opacity="1.000000" stroke="none" 
	d="
M26.870861,64.341682 
	C28.991961,66.560791 31.113060,68.779900 33.617081,70.999496 
	C30.969406,71.000000 27.938814,71.000000 24.392990,70.702606 
	C23.088085,69.959839 22.298410,69.514473 21.508736,69.069099 
	C22.569756,67.484779 23.630775,65.900467 25.195707,64.131020 
	C26.090033,64.077820 26.480448,64.209755 26.870861,64.341682 
z"/>
<path fill="#DC5450" opacity="1.000000" stroke="none" 
	d="
M42.250000,71.000000 
	C41.892776,70.264015 41.785553,69.528023 41.911110,68.317017 
	C42.437366,67.703743 42.692139,67.513664 43.171997,67.169121 
	C43.617115,67.014191 43.798435,66.961906 44.320412,66.948753 
	C45.348202,66.966248 46.035332,66.944618 46.795128,66.953705 
	C46.867786,66.984406 47.015743,67.039154 47.134117,67.250580 
	C47.457520,67.718719 47.703373,67.927315 47.987076,68.319351 
	C47.984104,68.550903 47.999489,69.013786 47.998837,69.007858 
	C47.998184,69.001930 47.982414,69.028336 47.595299,69.029778 
	C45.805454,69.687477 44.402725,70.343742 43.000000,71.000000 
	C43.000000,71.000000 42.500000,71.000000 42.250000,71.000000 
z"/>
<path fill="#CF7738" opacity="1.000000" stroke="none" 
	d="
M52.108761,66.943230 
	C52.719612,68.076843 53.330463,69.210464 53.970657,70.672043 
	C53.250000,71.000000 52.500000,71.000000 51.365307,70.758377 
	C50.980614,70.516747 50.951374,70.033989 50.967926,69.655899 
	C50.988911,68.522949 50.993336,67.768089 51.275757,66.999573 
	C51.738750,66.971695 51.923756,66.957458 52.108761,66.943230 
z"/>
<path fill="#E54A5F" opacity="1.000000" stroke="none" 
	d="
M43.416664,71.000000 
	C44.402725,70.343742 45.805454,69.687477 47.601562,69.356781 
	C47.996632,70.121559 47.998318,70.560776 48.000000,71.000000 
	C46.611111,71.000000 45.222221,71.000000 43.416664,71.000000 
z"/>
<path fill="#1F0D08" opacity="1.000000" stroke="none" 
	d="
M21.384445,69.379211 
	C22.298410,69.514473 23.088085,69.959839 23.938881,70.702606 
	C23.250000,71.000000 22.500000,71.000000 21.375000,71.000000 
	C21.086721,70.563110 21.173439,70.126213 21.384445,69.379211 
z"/>
<path fill="#E05056" opacity="1.000000" stroke="none" 
	d="
M48.375000,71.000000 
	C47.998318,70.560776 47.996632,70.121559 47.988682,69.355331 
	C47.982414,69.028336 47.998184,69.001930 48.287827,69.132858 
	C49.368771,69.520523 50.160072,69.777260 50.951374,70.033997 
	C50.951374,70.033989 50.980614,70.516747 50.990307,70.758377 
	C50.250000,71.000000 49.500000,71.000000 48.375000,71.000000 
z"/>
<path fill="#DF4D50" opacity="1.000000" stroke="none" 
	d="
M56.333332,71.000000 
	C56.491913,70.414696 56.983822,69.829391 57.735901,69.110260 
	C57.998627,69.426170 58.001186,69.875908 58.001873,70.662827 
	C57.555553,71.000000 57.111111,71.000000 56.333332,71.000000 
z"/>
<path fill="#1F0D08" opacity="1.000000" stroke="none" 
	d="
M19.250000,71.000000 
	C19.236015,70.806206 19.489525,70.759804 19.880264,70.930405 
	C20.000000,71.000000 19.500000,71.000000 19.250000,71.000000 
z"/>
<path fill="#2B0500" opacity="1.000000" stroke="none" 
	d="
M15.642359,69.639420 
	C15.896308,69.697357 15.916060,69.957962 15.967907,70.609283 
	C16.000000,71.000000 15.500000,71.000000 15.249999,71.000000 
	C15.136053,70.614029 15.272109,70.228065 15.642359,69.639420 
z"/>
<path fill="#1E1E1A" opacity="1.000000" stroke="none" 
	d="
M43.957394,19.007069 
	C41.963474,18.775650 39.969559,18.544233 37.387043,18.338280 
	C36.585812,18.201630 36.373173,18.039513 36.208450,17.866837 
	C36.256367,17.856279 36.287544,17.764290 36.583817,17.391426 
	C37.046467,16.748150 37.212841,16.477737 37.562614,16.065430 
	C37.983501,15.677339 38.057552,15.389149 37.985275,14.721836 
	C38.333130,13.585364 38.663868,12.786020 39.359413,11.992773 
	C40.453705,12.011756 41.183193,12.024641 41.912682,12.037527 
	C42.466862,12.534801 43.021046,13.032076 43.477539,14.063512 
	C43.572361,16.067472 43.764877,17.537270 43.957394,19.007069 
z"/>
<path fill="#5E4C47" opacity="1.000000" stroke="none" 
	d="
M29.978952,22.060362 
	C29.978952,22.060362 29.614363,22.257210 29.015148,22.201183 
	C27.607044,21.987749 26.798159,21.830341 25.989271,21.672932 
	C25.989271,21.672932 25.981289,21.366930 25.977121,20.906086 
	C25.746319,19.669233 25.519684,18.893221 25.293049,18.117208 
	C25.447701,17.829491 25.602350,17.541773 26.258366,17.053490 
	C27.511311,16.230366 28.262888,15.607808 29.022074,15.235314 
	C29.032740,15.652137 29.035799,15.818894 29.299150,16.237200 
	C30.748371,16.751619 31.937298,17.014492 33.053452,17.675640 
	C32.362610,18.588495 31.744541,19.103073 31.143551,19.587055 
	C31.160631,19.556459 31.069662,19.494911 30.892933,19.741947 
	C30.493813,20.324133 30.271423,20.659286 30.023821,21.260414 
	C29.992054,21.704382 29.985502,21.882372 29.978952,22.060362 
z"/>
<path fill="#F9B69C" opacity="1.000000" stroke="none" 
	d="
M15.899772,36.766083 
	C16.740004,35.584396 17.580236,34.402710 18.874451,33.369808 
	C20.321768,34.059349 21.315105,34.600105 22.271080,35.367287 
	C22.233717,35.593712 22.188047,36.051468 21.925632,36.241440 
	C21.318407,37.397007 20.973595,38.362610 20.308048,39.429901 
	C19.345783,39.734165 18.704250,39.936733 17.710306,40.073391 
	C16.889191,40.074532 16.420488,40.141579 15.951787,40.208626 
	C15.951787,40.208630 15.921561,40.016499 15.972240,39.721050 
	C16.022919,39.425602 15.999175,38.980896 15.992272,38.611916 
	C15.956838,37.750652 15.928305,37.258366 15.899772,36.766083 
z"/>
<path fill="#F6B691" opacity="1.000000" stroke="none" 
	d="
M22.308441,35.140854 
	C21.315105,34.600105 20.321768,34.059349 19.148693,33.216476 
	C20.432600,31.685257 21.896246,30.456156 23.689190,29.121386 
	C24.018488,29.015717 24.090212,29.081413 24.120296,29.421782 
	C24.443127,31.093843 24.735870,32.425537 24.759974,33.908947 
	C23.763702,34.420727 23.036072,34.780792 22.308441,35.140854 
z"/>
<path fill="#281E1C" opacity="1.000000" stroke="none" 
	d="
M38.994606,11.986675 
	C38.663868,12.786020 38.333130,13.585364 37.696239,14.690277 
	C36.670902,14.716884 35.951717,14.437922 34.942287,14.034261 
	C34.457661,13.828708 34.263283,13.747854 34.033215,13.415911 
	C33.742470,12.734175 33.487419,12.303529 33.158012,11.651209 
	C33.083660,11.429534 32.894176,11.002021 33.135586,10.742927 
	C33.981625,10.116596 34.586250,9.749359 35.190880,9.382124 
	C35.190880,9.382124 35.596355,9.477868 35.990822,9.893028 
	C37.309338,10.465658 38.233387,10.623128 39.157436,10.780598 
	C39.157436,10.780597 39.190136,10.632511 39.160149,10.970619 
	C39.084972,11.534710 39.039791,11.760693 38.994606,11.986675 
z"/>
<path fill="#7A3E42" opacity="1.000000" stroke="none" 
	d="
M32.894176,11.002021 
	C32.894176,11.002021 33.083660,11.429534 33.023323,11.708193 
	C32.962990,11.986851 32.702240,12.113926 32.590134,12.115238 
	C32.478031,12.116551 32.263355,12.181272 31.958878,12.254037 
	C30.779800,12.893988 29.905199,13.461172 28.618650,14.024143 
	C27.378494,14.027952 26.550283,14.035975 25.722075,14.043997 
	C25.358074,13.695358 24.994074,13.346719 24.813414,12.516579 
	C25.154510,11.875941 25.312265,11.716804 25.470018,11.557666 
	C27.000729,11.372823 28.531441,11.187980 30.703564,10.968481 
	C31.551413,10.928346 31.757849,10.922864 32.196510,10.943679 
	C32.428738,10.969975 32.894176,11.002021 32.894176,11.002021 
z"/>
<path fill="#370200" opacity="1.000000" stroke="none" 
	d="
M9.642876,42.198647 
	C9.984686,44.662579 9.989032,47.381008 9.722190,50.550880 
	C9.272314,51.003345 9.093626,51.004364 8.914939,51.005379 
	C9.045096,48.154633 9.175253,45.303890 9.642876,42.198647 
z"/>
<path fill="#F6A999" opacity="1.000000" stroke="none" 
	d="
M25.958981,21.976128 
	C26.798159,21.830341 27.607044,21.987749 28.817539,22.263388 
	C29.167871,23.031406 29.116598,23.681196 28.811279,24.668003 
	C28.377501,25.008741 28.197767,25.012461 27.672029,25.010094 
	C26.864735,24.999355 26.403444,24.994703 25.889587,24.779125 
	C25.837025,24.568201 25.802973,24.134787 25.858831,23.824728 
	C25.900299,23.305128 25.885910,23.095589 25.871519,22.886051 
	C25.890575,22.683807 25.909634,22.481565 25.958981,21.976128 
z"/>
<path fill="#A9515C" opacity="1.000000" stroke="none" 
	d="
M31.964287,10.917383 
	C31.757849,10.922864 31.551413,10.928346 31.037436,10.881173 
	C30.970131,8.739758 31.210365,6.650996 31.720011,4.692109 
	C31.993937,6.211325 31.998449,7.600668 31.985424,9.311411 
	C31.966682,10.061002 31.965485,10.489193 31.964287,10.917383 
z"/>
<path fill="#2F0E11" opacity="1.000000" stroke="none" 
	d="
M43.884750,19.051247 
	C43.764877,17.537270 43.572361,16.067472 43.566822,14.333708 
	C44.079220,15.431805 44.404644,16.793869 44.456417,18.559719 
	C44.182770,18.963505 43.885723,19.248707 43.885723,19.248707 
	C43.885723,19.248707 43.812107,19.095425 43.884750,19.051247 
z"/>
<path fill="#514745" opacity="1.000000" stroke="none" 
	d="
M25.832161,14.407885 
	C26.550283,14.035975 27.378494,14.027952 28.612782,14.263206 
	C29.018862,14.506483 29.014465,14.985250 29.014465,14.985250 
	C28.262888,15.607808 27.511311,16.230366 26.480309,16.937683 
	C26.114670,16.272219 26.028458,15.521996 25.832161,14.407885 
z"/>
<path fill="#7D363B" opacity="1.000000" stroke="none" 
	d="
M32.002964,8.990010 
	C31.998449,7.600668 31.993937,6.211325 31.980354,4.405205 
	C32.574394,4.458910 33.177505,4.929394 33.617790,5.923756 
	C33.306110,6.968256 33.157257,7.488876 32.878292,8.208883 
	C32.544395,8.659345 32.295990,8.853258 32.002964,8.990010 
z"/>
<path fill="#DB495C" opacity="1.000000" stroke="none" 
	d="
M25.802973,24.134787 
	C25.802973,24.134787 25.837025,24.568201 25.819939,25.002789 
	C25.802853,25.437374 25.727747,25.899811 25.572655,26.067421 
	C25.234255,26.487673 25.119829,26.768408 25.039885,27.276005 
	C25.005478,27.474777 24.954456,27.874994 24.722698,27.921412 
	C24.490942,27.967829 24.023573,28.038723 24.023571,28.038723 
	C24.183306,26.867567 24.343040,25.696413 24.942926,24.290390 
	C25.383080,24.055525 25.802973,24.134787 25.802973,24.134787 
z"/>
<path fill="#854452" opacity="1.000000" stroke="none" 
	d="
M31.985424,9.311411 
	C32.295990,8.853258 32.544395,8.659345 33.099838,8.201045 
	C33.451500,7.993820 33.894218,7.966624 33.894218,7.966624 
	C34.215298,8.323140 34.536373,8.679656 35.024166,9.209147 
	C34.586250,9.749359 33.981625,10.116596 33.135586,10.742927 
	C32.894176,11.002021 32.428738,10.969975 32.196510,10.943679 
	C31.965485,10.489193 31.966682,10.061002 31.985424,9.311411 
z"/>
<path fill="#7A3E42" opacity="1.000000" stroke="none" 
	d="
M24.751587,12.265013 
	C23.886576,11.906047 23.266731,11.317148 22.646887,10.728250 
	C22.774017,10.522663 22.901146,10.317077 23.028275,10.111490 
	C23.748991,10.425158 24.469709,10.738826 25.330223,11.305079 
	C25.312265,11.716804 25.154510,11.875941 24.751587,12.265013 
z"/>
<path fill="#3F0200" opacity="1.000000" stroke="none" 
	d="
M8.848555,51.400017 
	C9.093626,51.004364 9.272314,51.003345 9.718879,51.002880 
	C9.858367,52.136391 9.729979,53.269341 9.401645,54.680099 
	C9.061856,53.903488 8.922013,52.849072 8.848555,51.400017 
z"/>
<path fill="#80333E" opacity="1.000000" stroke="none" 
	d="
M25.196241,18.074142 
	C25.519684,18.893221 25.746319,19.669233 25.937622,20.758217 
	C25.631531,20.862314 25.360771,20.653437 24.996414,19.970592 
	C24.890789,19.329824 24.878759,19.163023 24.894985,18.742605 
	C24.913464,18.319145 24.903687,18.149303 24.893911,17.979460 
	C24.893911,17.979460 25.099436,18.031075 25.196241,18.074142 
z"/>
<path fill="#2F171B" opacity="1.000000" stroke="none" 
	d="
M39.359413,11.992773 
	C39.039791,11.760693 39.084972,11.534710 39.235672,10.977367 
	C40.101528,10.923492 40.861866,11.200977 41.767445,11.757995 
	C41.183193,12.024641 40.453705,12.011756 39.359413,11.992773 
z"/>
<path fill="#FEB1A3" opacity="1.000000" stroke="none" 
	d="
M15.668324,36.930126 
	C15.928305,37.258366 15.956838,37.750652 15.698656,38.618549 
	C15.022156,38.990025 14.632369,38.985886 14.242582,38.981747 
	C14.640680,38.352554 15.038779,37.723362 15.668324,36.930126 
z"/>
<path fill="#2F171B" opacity="1.000000" stroke="none" 
	d="
M38.921120,10.513380 
	C38.233387,10.623128 37.309338,10.465658 36.146797,10.031105 
	C36.833809,9.918069 37.759308,10.082115 38.921120,10.513380 
z"/>
<path fill="#EBB49C" opacity="1.000000" stroke="none" 
	d="
M14.144255,39.197212 
	C14.632369,38.985886 15.022156,38.990025 15.705559,38.987530 
	C15.999175,38.980896 16.022919,39.425602 16.036285,39.647865 
	C15.587790,39.930954 15.125926,39.991776 14.320618,39.966972 
	C13.977171,39.881344 14.045928,39.412678 14.144255,39.197212 
z"/>
<path fill="#C24C56" opacity="1.000000" stroke="none" 
	d="
M12.871325,39.690849 
	C12.588431,39.920471 12.137218,39.973675 11.356115,39.934536 
	C11.585152,39.732941 12.144080,39.623692 12.871325,39.690849 
z"/>
<path fill="#8E3540" opacity="1.000000" stroke="none" 
	d="
M33.921364,7.644015 
	C33.894218,7.966624 33.451500,7.993820 33.229950,8.001657 
	C33.157257,7.488876 33.306110,6.968256 33.633823,6.242641 
	C33.857960,6.465568 33.903236,6.893487 33.921364,7.644015 
z"/>
<path fill="#DF4D50" opacity="1.000000" stroke="none" 
	d="
M60.111145,66.914749 
	C59.971886,66.999847 60.022518,66.507225 60.066727,66.263763 
	C60.422611,66.260544 60.469097,66.530334 60.111145,66.914749 
z"/>
<path fill="#DF4D50" opacity="1.000000" stroke="none" 
	d="
M59.189400,67.876495 
	C59.091797,67.678482 59.286850,67.414482 59.780670,67.091721 
	C59.868938,67.285728 59.669811,67.544922 59.189400,67.876495 
z"/>
<path fill="#DF4D50" opacity="1.000000" stroke="none" 
	d="
M58.190651,68.879288 
	C58.093052,68.681747 58.287697,68.417175 58.780960,68.093155 
	C58.869354,68.286957 58.670460,68.546471 58.190651,68.879288 
z"/>
<path fill="#E14D6E" opacity="1.000000" stroke="none" 
	d="
M24.715258,18.123823 
	C24.903687,18.149303 24.913464,18.319145 24.682167,18.748741 
	C24.441092,19.008493 24.014473,19.019810 24.014473,19.019810 
	C24.141174,18.736378 24.315218,18.485836 24.715258,18.123823 
z"/>
<path fill="#DB495C" opacity="1.000000" stroke="none" 
	d="
M24.119492,19.206539 
	C24.014473,19.019810 24.441092,19.008493 24.653910,19.002357 
	C24.878759,19.163023 24.890789,19.329824 24.866169,19.744677 
	C24.590387,19.830715 24.388718,19.630896 24.119492,19.206539 
z"/>
<path fill="#692832" opacity="1.000000" stroke="none" 
	d="
M44.013699,19.416557 
	C43.885723,19.248707 44.182770,18.963505 44.380890,18.907972 
	C44.579010,18.852440 44.803589,19.259470 44.888638,19.475248 
	C44.973686,19.691027 44.548527,19.708918 44.548527,19.708918 
	C44.548527,19.708918 44.141674,19.584406 44.013699,19.416557 
z"/>
<path fill="#F6B691" opacity="1.000000" stroke="none" 
	d="
M24.014702,28.266552 
	C24.023573,28.038723 24.490942,27.967829 24.735962,28.203293 
	C24.987267,28.626518 24.993549,28.814278 24.772108,29.018234 
	C24.544384,29.034430 24.090212,29.081413 24.090212,29.081413 
	C24.090212,29.081413 24.018488,29.015717 23.981705,28.981007 
	C23.944920,28.946297 24.005831,28.494381 24.014702,28.266552 
z"/>
<path fill="#DE7A71" opacity="1.000000" stroke="none" 
	d="
M25.858831,23.824728 
	C25.802973,24.134787 25.383080,24.055525 25.172338,24.018295 
	C25.117931,23.702362 25.304121,23.445278 25.695843,23.047934 
	C25.885910,23.095589 25.900299,23.305128 25.858831,23.824728 
z"/>
<path fill="#2F1303" opacity="1.000000" stroke="none" 
	d="
M36.000565,56.980686 
	C35.084171,53.201122 34.437366,49.244629 28.780930,50.651516 
	C28.107407,50.819038 26.486973,49.234055 26.130730,48.181969 
	C25.452398,46.178650 25.370213,43.973480 25.272587,41.424477 
	C25.673189,40.988018 25.841703,40.979206 26.395111,40.981018 
	C27.552229,40.971313 28.324455,40.950989 29.325314,40.981216 
	C29.553946,41.031769 29.998308,41.179615 29.937397,41.512833 
	C29.393826,43.623043 28.911165,45.400036 28.428505,47.177025 
	C29.215633,47.292183 30.002764,47.407341 30.789892,47.522499 
	C30.870872,45.645729 30.951855,43.768963 31.333580,41.941360 
	C32.343246,42.330799 33.052166,42.671074 33.921177,43.314987 
	C35.771469,45.562675 37.461670,47.506725 39.151867,49.450779 
	C39.151867,49.450779 39.238903,49.735699 39.561790,50.024216 
	C41.576099,51.911991 43.267513,53.511250 44.958931,55.110512 
	C45.631557,56.181274 46.304184,57.252037 46.772057,58.918739 
	C45.621807,61.054806 44.676315,62.594929 43.406876,64.138092 
	C42.300194,64.437416 41.517456,64.733696 40.633507,65.030464 
	C40.532291,65.030952 40.329872,65.028809 40.208508,64.759506 
	C39.972782,64.329895 39.858418,64.169586 39.788872,63.557938 
	C39.471539,61.408173 39.109398,59.709732 38.675713,57.926208 
	C38.105156,57.871998 37.606152,57.902874 37.078793,57.957939 
	C37.050442,57.982121 37.008385,57.920589 36.872772,57.731533 
	C36.528767,57.306526 36.283234,57.119263 36.000565,56.980686 
z"/>
<path fill="#EE4568" opacity="1.000000" stroke="none" 
	d="
M33.761086,43.011345 
	C33.052166,42.671074 32.343246,42.330799 31.249613,41.711388 
	C30.646881,41.105019 30.358017,41.020809 29.998308,41.179615 
	C29.998308,41.179615 29.553946,41.031769 29.285782,40.786240 
	C29.017620,40.540714 28.951012,40.147526 28.722137,39.874588 
	C27.336214,39.367489 26.179167,39.133327 24.826097,38.684906 
	C23.816065,37.664253 23.002056,36.857861 22.188047,36.051468 
	C22.188047,36.051468 22.233717,35.593712 22.271080,35.367283 
	C23.036072,34.780792 23.763702,34.420727 25.053787,33.856796 
	C26.462122,33.138142 27.307999,32.623352 28.356575,32.138649 
	C28.559271,32.168732 28.966078,32.218479 29.034164,32.542816 
	C30.111814,33.859715 31.121376,34.852280 32.120293,35.877594 
	C32.109650,35.910343 32.045254,35.934757 32.137360,36.080162 
	C32.515419,36.149551 32.801373,36.073536 33.475220,36.006252 
	C34.893032,35.962765 35.922943,35.910549 36.952858,35.858334 
	C36.952858,35.858334 36.967232,35.959263 37.092369,36.203339 
	C37.406933,36.689442 37.635845,36.885338 37.904243,37.035099 
	C37.904243,37.035099 37.914898,37.525517 37.693775,38.049553 
	C37.308693,39.748825 37.144733,40.924061 36.980778,42.099300 
	C36.980778,42.099300 36.935738,42.529972 36.532280,42.749557 
	C35.339573,42.983212 34.550331,42.997276 33.761086,43.011345 
z"/>
<path fill="#FA9B55" opacity="1.000000" stroke="none" 
	d="
M33.921177,43.314987 
	C34.550331,42.997276 35.339573,42.983212 36.521507,42.965801 
	C39.939198,43.228264 43.196918,43.034325 44.644199,46.686417 
	C42.844913,47.456299 41.236794,48.144386 39.390266,49.141624 
	C37.461670,47.506725 35.771469,45.562675 33.921177,43.314987 
z"/>
<path fill="#321001" opacity="1.000000" stroke="none" 
	d="
M43.730820,64.135048 
	C44.676315,62.594929 45.621807,61.054806 46.787811,59.246376 
	C48.430382,61.088905 49.852444,63.199745 50.901890,65.618118 
	C50.355217,65.985489 50.181152,66.045319 49.613430,66.064163 
	C48.432018,65.960533 47.644268,65.897888 46.609550,65.668327 
	C45.485329,65.045959 44.608070,64.590508 43.730820,64.135048 
z"/>
<path fill="#F9B896" opacity="1.000000" stroke="none" 
	d="
M28.966078,32.218479 
	C28.966078,32.218479 28.559271,32.168732 28.103394,31.900173 
	C27.430408,30.753265 27.213301,29.874916 27.046722,28.656506 
	C27.404179,27.216356 27.711105,26.116266 28.018032,25.016178 
	C28.197767,25.012461 28.377501,25.008741 28.827734,24.995598 
	C29.680552,25.780537 30.262871,26.574900 30.903872,27.929337 
	C30.984344,28.657846 31.006134,28.826281 31.027924,28.994713 
	C31.010220,29.459944 30.992517,29.925175 30.698505,30.849970 
	C29.936825,31.612514 29.451450,31.915497 28.966078,32.218479 
z"/>
<path fill="#FA9B55" opacity="1.000000" stroke="none" 
	d="
M44.956406,54.734047 
	C43.267513,53.511250 41.576099,51.911991 39.702370,50.073479 
	C43.276829,49.004925 44.267620,51.498337 44.956406,54.734047 
z"/>
<path fill="#0E0200" opacity="1.000000" stroke="none" 
	d="
M31.126471,19.617651 
	C31.744541,19.103073 32.362610,18.588495 33.048363,17.639969 
	C33.116047,17.206020 33.046658,17.179541 33.057388,17.210175 
	C33.068123,17.240808 33.162601,17.289513 33.228004,17.479435 
	C33.293407,17.669357 33.693619,17.704353 33.685608,18.135910 
	C33.947880,19.320297 34.218166,20.073126 34.488453,20.825954 
	C33.981171,21.199060 33.473892,21.572166 32.542221,21.719627 
	C31.846458,21.185907 31.575089,20.877832 31.246456,20.416126 
	C31.163574,20.048004 31.142668,19.833057 31.126471,19.617651 
z"/>
<path fill="#E14E53" opacity="1.000000" stroke="none" 
	d="
M29.034164,32.542816 
	C29.451450,31.915497 29.936825,31.612514 30.682659,31.198788 
	C31.137737,31.606123 31.332357,32.124207 31.752247,33.188332 
	C32.028660,34.437862 32.079800,35.141350 32.130939,35.844841 
	C31.121376,34.852280 30.111814,33.859715 29.034164,32.542816 
z"/>
<path fill="#FF9061" opacity="1.000000" stroke="none" 
	d="
M32.120293,35.877594 
	C32.079800,35.141350 32.028660,34.437862 31.955244,33.381523 
	C33.462025,33.823021 34.991077,34.617374 36.736496,35.635029 
	C35.922943,35.910549 34.893032,35.962765 33.216213,35.957153 
	C32.394623,35.911133 32.219940,35.922943 32.045254,35.934757 
	C32.045254,35.934757 32.109650,35.910343 32.120293,35.877594 
z"/>
<path fill="#E14E48" opacity="1.000000" stroke="none" 
	d="
M37.240566,41.840561 
	C37.144733,40.924061 37.308693,39.748825 37.686890,38.294724 
	C37.767536,39.204514 37.633945,40.393169 37.240566,41.840561 
z"/>
<path fill="#FDC9AC" opacity="1.000000" stroke="none" 
	d="
M34.758614,20.687363 
	C34.218166,20.073126 33.947880,19.320297 34.207161,18.252041 
	C35.077671,18.039757 35.418621,18.142899 35.806049,18.473927 
	C35.852531,18.701813 36.008564,19.140017 36.008564,19.140017 
	C35.681969,19.609602 35.355370,20.079185 34.758614,20.687363 
z"/>
<path fill="#CB7C49" opacity="1.000000" stroke="none" 
	d="
M50.007088,66.105156 
	C50.181152,66.045319 50.355217,65.985489 50.800499,65.977005 
	C51.416851,66.067162 51.676552,66.236794 51.979794,66.740234 
	C51.923756,66.957458 51.738750,66.971695 51.081657,66.881752 
	C50.362530,66.594841 50.161705,66.370697 50.007088,66.105156 
z"/>
<path fill="#D1A69C" opacity="1.000000" stroke="none" 
	d="
M36.199173,19.089008 
	C36.008564,19.140017 35.852531,18.701813 35.924976,18.371479 
	C35.997421,18.041145 36.240330,17.846497 36.225643,17.866745 
	C36.210957,17.886993 36.160538,17.877396 36.160538,17.877396 
	C36.373173,18.039513 36.585812,18.201630 37.125828,18.584404 
	C37.098736,18.882708 36.744259,18.960354 36.199173,19.089008 
z"/>
<path fill="#3E110E" opacity="1.000000" stroke="none" 
	d="
M32.417061,22.032221 
	C32.177982,22.669159 31.639669,22.767859 31.098183,22.179951 
	C31.191711,21.185963 31.288418,20.878586 31.365088,20.607914 
	C31.345053,20.644621 31.303720,20.569757 31.303720,20.569757 
	C31.575089,20.877832 31.846458,21.185907 32.417061,22.032221 
z"/>
<path fill="#E14E48" opacity="1.000000" stroke="none" 
	d="
M37.827148,36.809822 
	C37.635845,36.885338 37.406933,36.689442 37.099205,36.253853 
	C37.311497,36.126171 37.567879,36.300922 37.827148,36.809822 
z"/>
<path fill="#F49A55" opacity="1.000000" stroke="none" 
	d="
M31.150230,28.885677 
	C31.006134,28.826281 30.984344,28.657846 30.964695,28.234333 
	C31.315592,28.170300 31.417494,28.436098 31.150230,28.885677 
z"/>
<path fill="#3D2024" opacity="1.000000" stroke="none" 
	d="
M31.385122,20.571209 
	C31.288418,20.878586 31.191711,21.185963 30.969471,21.960922 
	C30.843937,22.428501 30.384245,22.307934 30.181599,22.184147 
	C29.985502,21.882372 29.992054,21.704382 30.358032,21.178867 
	C30.930090,20.744577 31.142721,20.657808 31.365242,20.576725 
	C31.375128,20.582411 31.385122,20.571209 31.385122,20.571209 
z"/>
<path fill="#57040A" opacity="1.000000" stroke="none" 
	d="
M26.010220,40.970390 
	C25.841703,40.979206 25.673189,40.988018 25.252197,41.015465 
	C22.970364,41.010307 20.941008,40.986507 18.477871,40.747589 
	C18.044092,40.532463 18.062719,40.139301 18.062719,40.139301 
	C18.704250,39.936733 19.345783,39.734165 20.710360,39.639320 
	C22.609419,39.728924 23.785431,39.710804 25.215061,39.806534 
	C25.640032,39.990517 25.811386,40.060654 25.990356,40.340664 
	C25.997972,40.550541 26.010220,40.970390 26.010220,40.970390 
z"/>
<path fill="#220800" opacity="1.000000" stroke="none" 
	d="
M35.802322,56.998825 
	C36.283234,57.119263 36.528767,57.306526 36.508965,57.758640 
	C35.793541,57.962612 35.306313,57.950420 34.819092,57.938232 
	C35.080753,57.631142 35.342415,57.324051 35.802322,56.998825 
z"/>
<path fill="#E0B397" opacity="1.000000" stroke="none" 
	d="
M26.903679,63.965031 
	C26.480448,64.209755 26.090033,64.077820 25.402739,63.859077 
	C25.542353,63.506886 25.978848,63.241512 26.678253,62.904182 
	C26.939606,63.084286 26.938049,63.336334 26.903679,63.965031 
z"/>
<path fill="#75594C" opacity="1.000000" stroke="none" 
	d="
M34.794838,58.110001 
	C35.306313,57.950420 35.793541,57.962612 36.644577,57.947697 
	C37.008385,57.920589 37.050442,57.982121 37.159897,58.157562 
	C37.269352,58.333004 37.358765,58.754322 37.184002,58.868050 
	C37.009239,58.981777 36.661682,59.212234 36.661682,59.212234 
	C36.243233,59.098164 35.824787,58.984093 35.104324,58.748642 
	C34.802311,58.627266 34.770584,58.281769 34.794838,58.110001 
z"/>
<path fill="#50240D" opacity="1.000000" stroke="none" 
	d="
M17.710306,40.073391 
	C18.062719,40.139301 18.044092,40.532463 18.044117,40.728462 
	C17.493565,40.806149 16.942989,40.687840 16.172100,40.389076 
	C16.420488,40.141579 16.889191,40.074532 17.710306,40.073391 
z"/>
<path fill="#684E42" opacity="1.000000" stroke="none" 
	d="
M38.747261,58.011299 
	C39.109398,59.709732 39.471539,61.408173 39.626549,63.557404 
	C39.419418,64.008194 39.090187,64.011391 39.090187,64.011391 
	C38.317589,62.637985 37.544987,61.264584 36.717033,59.551704 
	C36.661682,59.212234 37.009239,58.981777 37.446388,58.813892 
	C38.171444,58.434437 38.459351,58.222870 38.747261,58.011299 
z"/>
<path fill="#310301" opacity="1.000000" stroke="none" 
	d="
M40.329872,65.028809 
	C40.329872,65.028809 40.532291,65.030952 40.909443,65.199837 
	C42.184315,65.882362 43.082035,66.395996 43.979755,66.909630 
	C43.798435,66.961906 43.617115,67.014191 42.807114,67.219086 
	C42.005821,67.546677 41.833206,67.721664 41.660595,67.896645 
	C41.163345,67.487740 40.666100,67.078835 40.126686,66.107918 
	C40.166302,65.373543 40.248089,65.201180 40.329872,65.028809 
z"/>
<path fill="#664C45" opacity="1.000000" stroke="none" 
	d="
M40.208508,64.759506 
	C40.248089,65.201180 40.166302,65.373543 39.986946,65.814720 
	C39.607311,65.593178 39.325249,65.102829 39.066685,64.311935 
	C39.090187,64.011391 39.419418,64.008194 39.581738,64.008728 
	C39.858418,64.169586 39.972782,64.329895 40.208508,64.759506 
z"/>
<path fill="#E54A5F" opacity="1.000000" stroke="none" 
	d="
M41.670391,67.933968 
	C41.833206,67.721664 42.005821,67.546677 42.543320,67.321724 
	C42.692139,67.513664 42.437366,67.703743 41.921741,67.943993 
	C41.699589,68.045990 41.680187,67.971291 41.670391,67.933968 
z"/>
<path fill="#664C45" opacity="1.000000" stroke="none" 
	d="
M44.320412,66.948753 
	C43.082035,66.395996 42.184315,65.882362 41.010658,65.199348 
	C41.517456,64.733696 42.300194,64.437416 43.406876,64.138092 
	C44.608070,64.590508 45.485329,65.045959 46.600029,65.943565 
	C46.799141,66.564812 46.760803,66.743904 46.722466,66.922997 
	C46.035332,66.944618 45.348202,66.966248 44.320412,66.948753 
z"/>
<path fill="#D7764B" opacity="1.000000" stroke="none" 
	d="
M46.795128,66.953705 
	C46.760803,66.743904 46.799141,66.564812 46.846992,66.110481 
	C47.644268,65.897888 48.432018,65.960533 49.613430,66.064163 
	C50.161705,66.370697 50.362530,66.594841 50.803665,66.895401 
	C50.993336,67.768089 50.988911,68.522949 50.967926,69.655907 
	C50.160072,69.777260 49.368771,69.520523 48.288479,69.138794 
	C47.999489,69.013786 47.984104,68.550903 47.871277,68.103378 
	C47.564480,67.385712 47.316914,67.180145 47.015743,67.039154 
	C47.015743,67.039154 46.867786,66.984406 46.795128,66.953705 
z"/>
<path fill="#CB7C49" opacity="1.000000" stroke="none" 
	d="
M47.134117,67.250580 
	C47.316914,67.180145 47.564480,67.385712 47.874249,67.871826 
	C47.703373,67.927315 47.457520,67.718719 47.134117,67.250580 
z"/>
<path fill="#FDC9AC" opacity="1.000000" stroke="none" 
	d="
M35.232533,14.158959 
	C35.951717,14.437922 36.670902,14.716884 37.679123,15.027405 
	C38.057552,15.389149 37.983501,15.677339 37.223549,15.988516 
	C36.240154,16.011368 35.779217,15.969238 35.288651,15.633602 
	C35.250187,14.946383 35.241360,14.552671 35.232533,14.158959 
z"/>
<path fill="#D1A69C" opacity="1.000000" stroke="none" 
	d="
M35.318283,15.927109 
	C35.779217,15.969238 36.240154,16.011368 37.040154,16.130413 
	C37.212841,16.477737 37.046467,16.748150 36.602928,17.385834 
	C36.325764,17.753109 36.240330,17.846497 36.240330,17.846497 
	C36.240330,17.846497 35.997421,18.041145 35.878494,18.143593 
	C35.418621,18.142899 35.077671,18.039757 34.215172,17.820484 
	C33.693619,17.704353 33.293407,17.669357 33.831345,17.235884 
	C34.685616,16.510643 35.001949,16.218876 35.318283,15.927109 
z"/>
<path fill="#FDC9AC" opacity="1.000000" stroke="none" 
	d="
M36.225643,17.866745 
	C36.240330,17.846497 36.325764,17.753109 36.306656,17.758699 
	C36.287544,17.764290 36.256367,17.856279 36.208450,17.866837 
	C36.160538,17.877396 36.210957,17.886993 36.225643,17.866745 
z"/>
<path fill="#43443E" opacity="1.000000" stroke="none" 
	d="
M29.022074,15.235314 
	C29.014465,14.985250 29.018862,14.506483 29.024731,14.267420 
	C29.905199,13.461172 30.779800,12.893988 31.997156,12.338009 
	C32.339912,12.349216 32.593361,12.357603 32.593361,12.357603 
	C32.593361,12.357603 32.702240,12.113926 32.702240,12.113926 
	C32.702240,12.113926 32.962990,11.986851 33.097679,11.929867 
	C33.487419,12.303529 33.742470,12.734175 33.980049,13.752540 
	C33.623528,14.891438 33.284473,15.442619 32.673210,15.869751 
	C31.280287,15.825686 30.159571,15.905669 29.038857,15.985653 
	C29.035799,15.818894 29.032740,15.652137 29.022074,15.235314 
z"/>
<path fill="#483E3C" opacity="1.000000" stroke="none" 
	d="
M29.299150,16.237200 
	C30.159571,15.905669 31.280287,15.825686 32.714584,16.164894 
	C33.034332,16.782570 33.040497,16.981056 33.046658,17.179541 
	C33.046658,17.179541 33.116047,17.206020 33.121136,17.241692 
	C31.937298,17.014492 30.748371,16.751619 29.299150,16.237200 
z"/>
<path fill="#BE5A52" opacity="1.000000" stroke="none" 
	d="
M31.246456,20.416126 
	C31.303720,20.569757 31.345053,20.644621 31.365088,20.607914 
	C31.385122,20.571209 31.375128,20.582411 31.393269,20.284681 
	C31.297493,19.822937 31.183578,19.658924 31.069662,19.494911 
	C31.069662,19.494911 31.160631,19.556459 31.143551,19.587055 
	C31.142668,19.833057 31.163574,20.048004 31.246456,20.416126 
z"/>
<path fill="#3E110E" opacity="1.000000" stroke="none" 
	d="
M30.892933,19.741947 
	C31.183578,19.658924 31.297493,19.822937 31.383381,20.278996 
	C31.142721,20.657808 30.930090,20.744577 30.383247,20.912891 
	C30.271423,20.659286 30.493813,20.324133 30.892933,19.741947 
z"/>
<path fill="#E04F69" opacity="1.000000" stroke="none" 
	d="
M24.961445,39.692680 
	C23.785431,39.710804 22.609419,39.728924 21.031094,39.537628 
	C20.973595,38.362610 21.318407,37.397007 21.925632,36.241440 
	C23.002056,36.857861 23.816065,37.664253 24.807487,38.883575 
	C24.984900,39.296505 24.961445,39.692680 24.961445,39.692680 
z"/>
<path fill="#EFBB8E" opacity="1.000000" stroke="none" 
	d="
M26.996191,28.996567 
	C27.213301,29.874916 27.430408,30.753265 27.900698,31.870090 
	C27.307999,32.623352 26.462122,33.138142 25.322430,33.705082 
	C24.735870,32.425537 24.443127,31.093843 24.120296,29.421782 
	C24.090212,29.081413 24.544384,29.034430 25.104862,29.016857 
	C26.108955,28.998381 26.552574,28.997473 26.996191,28.996567 
z"/>
<path fill="#5E4C47" opacity="1.000000" stroke="none" 
	d="
M33.057388,17.210175 
	C33.040497,16.981056 33.034332,16.782570 32.986794,16.288942 
	C33.284473,15.442619 33.623528,14.891438 34.015743,14.003630 
	C34.263283,13.747854 34.457661,13.828708 34.942287,14.034261 
	C35.241360,14.552671 35.250187,14.946383 35.288651,15.633602 
	C35.001949,16.218876 34.685616,16.510643 33.765942,17.045961 
	C33.162601,17.289513 33.068123,17.240808 33.057388,17.210175 
z"/>
<path fill="#7D363B" opacity="1.000000" stroke="none" 
	d="
M32.590134,12.115238 
	C32.702240,12.113926 32.593361,12.357603 32.593361,12.357603 
	C32.593361,12.357603 32.339912,12.349216 32.301636,12.265244 
	C32.263355,12.181272 32.478031,12.116551 32.590134,12.115238 
z"/>
<path fill="#F4B292" opacity="1.000000" stroke="none" 
	d="
M27.046722,28.656506 
	C26.552574,28.997473 26.108955,28.998381 25.332584,29.000662 
	C24.993549,28.814278 24.987267,28.626518 24.967720,28.156876 
	C24.954456,27.874994 25.005478,27.474777 25.219193,27.122894 
	C25.657181,26.523249 25.755459,26.232849 25.727747,25.899811 
	C25.727747,25.899811 25.802853,25.437374 25.872501,25.213711 
	C26.403444,24.994703 26.864735,24.999355 27.672028,25.010094 
	C27.711105,26.116266 27.404179,27.216356 27.046722,28.656506 
z"/>
<path fill="#DE7A71" opacity="1.000000" stroke="none" 
	d="
M25.572655,26.067421 
	C25.755459,26.232849 25.657181,26.523249 25.253601,26.924124 
	C25.119829,26.768408 25.234255,26.487673 25.572655,26.067421 
z"/>
<path fill="#2F1202" opacity="1.000000" stroke="none" 
	d="
M29.937397,41.512833 
	C30.358017,41.020809 30.646881,41.105019 30.948868,41.662216 
	C30.951855,43.768963 30.870872,45.645729 30.789892,47.522499 
	C30.002764,47.407341 29.215633,47.292183 28.428505,47.177025 
	C28.911165,45.400036 29.393826,43.623043 29.937397,41.512833 
z"/>
<path fill="#220800" opacity="1.000000" stroke="none" 
	d="
M38.675713,57.926208 
	C38.459351,58.222870 38.171444,58.434437 37.621151,58.700165 
	C37.358765,58.754322 37.269352,58.333004 37.188248,58.133377 
	C37.606152,57.902874 38.105156,57.871998 38.675713,57.926208 
z"/>
<path fill="#630E14" opacity="1.000000" stroke="none" 
	d="
M26.395111,40.981018 
	C26.010220,40.970390 25.997972,40.550541 26.359905,40.291031 
	C27.464895,40.070187 28.207954,40.108856 28.951012,40.147526 
	C28.951012,40.147526 29.017620,40.540714 29.057150,40.735687 
	C28.324455,40.950989 27.552229,40.971313 26.395111,40.981018 
z"/>
<path fill="#CF5567" opacity="1.000000" stroke="none" 
	d="
M28.722137,39.874588 
	C28.207954,40.108856 27.464895,40.070187 26.352287,40.081154 
	C25.811386,40.060654 25.640032,39.990517 25.215061,39.806534 
	C24.961445,39.692680 24.984900,39.296505 25.003510,39.097839 
	C26.179167,39.133327 27.336214,39.367489 28.722137,39.874588 
z"/>
<path fill="#E14E53" opacity="1.000000" stroke="none" 
	d="
M32.137360,36.080162 
	C32.219940,35.922943 32.394623,35.911133 32.828316,35.948425 
	C32.801373,36.073536 32.515419,36.149551 32.137360,36.080162 
z"/>
</svg>